HIERARCHY
ROOT Hips
{
 OFFSET 0.000000 0.000000 0.000000
 CHANNELS 6 Xposition Yposition Zposition Yrotation Xrotation Zrotation
 JOINT Chest
 {
  OFFSET 0.000000 9.585900 0.002600
  CHANNELS 3 Yrotation Xrotation Zrotation
  JOINT Chest2
  {
   OFFSET 0.000000 9.601200 -0.005300
   CHANNELS 3 Yrotation Xrotation Zrotation
   JOINT Chest3
   {
    OFFSET 0.000000 9.561800 0.000000
    CHANNELS 3 Yrotation Xrotation Zrotation
    JOINT Chest4
    {
     OFFSET 0.000000 9.552100 0.000000
     CHANNELS 3 Yrotation Xrotation Zrotation
     JOINT Neck
     {
      OFFSET 0.000000 14.453000 0.000000
      CHANNELS 3 Yrotation Xrotation Zrotation
      JOINT Head
      {
       OFFSET 0.000000 8.936500 -0.011300
       CHANNELS 3 Yrotation Xrotation Zrotation
       End Site
       {
        OFFSET 0.000000 17.073600 -0.006000
       }
      }
     }
     JOINT RightCollar
     {
      OFFSET -2.921100 9.558500 0.000000
      CHANNELS 3 Yrotation Xrotation Zrotation
      JOINT RightShoulder
      {
       OFFSET -13.519700 0.000000 0.000000
       CHANNELS 3 Yrotation Xrotation Zrotation
       JOINT RightElbow
       {
        OFFSET 0.000000 -29.696600 0.000000
        CHANNELS 3 Yrotation Xrotation Zrotation
        JOINT RightWrist
        {
         OFFSET 0.000000 -24.004700 0.000000
         CHANNELS 3 Yrotation Xrotation Zrotation
         End Site
         {
          OFFSET 0.000000 -17.728500 0.000000
         }
        }
       }
      }
     }
     JOINT LeftCollar
     {
      OFFSET 2.921100 9.558500 0.000000
      CHANNELS 3 Yrotation Xrotation Zrotation
      JOINT LeftShoulder
      {
       OFFSET 13.519700 0.000000 0.000000
       CHANNELS 3 Yrotation Xrotation Zrotation
       JOINT LeftElbow
       {
        OFFSET 0.000000 -29.696600 0.000000
        CHANNELS 3 Yrotation Xrotation Zrotation
        JOINT LeftWrist
        {
         OFFSET 0.000000 -24.004700 0.000000
         CHANNELS 3 Yrotation Xrotation Zrotation
         End Site
         {
          OFFSET 0.000000 -17.728500 0.000000
         }
        }
       }
      }
     }
    }
   }
  }
 }
 JOINT RightHip
 {
  OFFSET -7.771700 -0.012900 -0.001300
  CHANNELS 3 Yrotation Xrotation Zrotation
  JOINT RightKnee
  {
   OFFSET 0.000000 -40.869800 0.001200
   CHANNELS 3 Yrotation Xrotation Zrotation
   JOINT RightAnkle
   {
    OFFSET 0.000000 -39.717900 0.002100
    CHANNELS 3 Yrotation Xrotation Zrotation
    JOINT RightToe
    {
     OFFSET 0.000000 -4.965400 11.033500
     CHANNELS 3 Yrotation Xrotation Zrotation
     End Site
     {
      OFFSET 0.000000 -1.423100 5.872300
     }
    }
   }
  }
 }
 JOINT LeftHip
 {
  OFFSET 7.771700 -0.012900 -0.001300
  CHANNELS 3 Yrotation Xrotation Zrotation
  JOINT LeftKnee
  {
   OFFSET 0.000000 -40.869800 0.001200
   CHANNELS 3 Yrotation Xrotation Zrotation
   JOINT LeftAnkle
   {
    OFFSET 0.000000 -39.717900 0.002100
    CHANNELS 3 Yrotation Xrotation Zrotation
    JOINT LeftToe
    {
     OFFSET 0.000000 -4.965400 11.033500
     CHANNELS 3 Yrotation Xrotation Zrotation
     End Site
     {
      OFFSET 0.000000 -1.423100 5.872300
     }
    }
   }
  }
 }
}
MOTION
Frames: 12
Frame Time: 0.008333
-17.061063 57.239459 83.360769 -177.972570 -32.062504 -0.747891 3.017533 19.008308 4.349081 0.281673 2.340401 0.308722 0.457641 3.855887 0.529886 2.351974 16.630421 2.499225 -3.036814 13.010209 0.015224 -5.762921 -11.573075 1.255588 0.936126 -2.266938 -1.113038 6.396869 -14.561951 -18.891901 147.663612 -75.647785 -116.837616 12.349920 -13.743551 -43.426461 -8.241594 -4.298715 -3.124308 4.648902 -12.754629 3.566671 29.370637 -83.066888 -57.476275 -7.299996 3.771558 11.472707 12.516553 -38.948286 -9.250960 -5.513845 67.780297 -5.067103 6.085545 4.965687 9.665874 -0.129741 0.144810 -0.056900 -7.997556 -46.510570 0.494963 28.319818 65.349576 28.712018 -16.543047 28.793060 -3.766781 0.767055 -14.101318 -3.809892
-17.070813 57.226661 83.370888 -177.937367 -32.107201 -0.774456 3.043586 19.017433 4.325835 0.285488 2.343659 0.306178 0.476720 3.854910 0.510258 2.367906 16.645135 2.499728 -3.093472 12.978554 0.015225 -5.871631 -11.629465 1.280071 0.931483 -2.245280 -1.090980 6.483908 -14.596035 -18.874630 146.850959 -75.600433 -116.034650 12.384167 -13.468751 -43.249467 -8.235965 -4.254381 -3.109168 4.677038 -12.669995 3.529903 27.106053 -83.202605 -55.093155 -7.506978 3.931245 11.248109 12.617531 -38.903227 -9.244077 -5.610062 67.787736 -5.197466 6.036207 4.959732 9.778692 -0.135838 0.139840 -0.052823 -8.034085 -46.463313 0.510428 28.256051 65.351433 28.663362 -16.586632 28.728054 -3.827390 0.794708 -14.043967 -3.788260
-17.084704 57.215068 83.379561 -177.906329 -32.159669 -0.781454 3.071595 19.036075 4.288207 0.289465 2.346821 0.303824 0.483095 3.859923 0.506441 2.392689 16.654021 2.484345 -3.161042 12.939826 0.012538 -6.000265 -11.698716 1.304151 0.981492 -2.198106 -1.127230 6.414532 -14.655618 -18.771651 146.139176 -75.524534 -115.279193 12.415891 -13.150707 -43.036257 -8.229603 -4.204163 -3.095799 4.714001 -12.582623 3.479013 24.240164 -83.384526 -52.087997 -7.728310 4.121076 11.042930 12.738080 -38.853877 -9.260086 -5.699810 67.813382 -5.329066 5.976919 4.946783 9.905805 -0.119896 0.127057 -0.060677 -8.041470 -46.411808 0.493891 28.178016 65.358858 28.590885 -16.579058 28.686335 -3.849347 0.801159 -13.999088 -3.774414
-17.108663 57.205004 83.386495 -177.863289 -32.221887 -0.743992 3.078073 19.067666 4.201577 0.293473 2.350080 0.301772 0.489653 3.865082 0.503115 2.418244 16.662913 2.471132 -3.241324 12.894743 0.006078 -6.151844 -11.779403 1.326633 0.996250 -2.161617 -1.119614 6.490668 -14.707141 -18.730347 145.200533 -75.473832 -114.412798 12.454961 -12.781907 -42.797016 -8.221110 -4.151586 -3.082438 4.759998 -12.492455 3.415831 20.587140 -83.601908 -48.272787 -7.938698 4.320018 10.869658 12.896103 -38.798150 -9.374170 -5.754420 67.880423 -5.421501 5.978955 4.917264 10.047509 -0.161594 0.102947 -0.071479 -8.003968 -46.358232 0.398812 28.104741 65.369594 28.512242 -16.545094 28.649109 -3.844804 0.797990 -13.970241 -3.765455
-17.135008 57.196474 83.391714 -177.825440 -32.291385 -0.700100 3.094142 19.105676 4.115091 0.297385 2.353719 0.299946 0.459079 3.881011 0.526577 2.471689 16.664101 2.428863 -3.334374 12.843274 -0.004586 -6.326335 -11.871444 1.346880 0.994135 -2.134665 -1.094618 6.563621 -14.744276 -18.688051 144.218186 -75.396122 -113.511673 12.506884 -12.365748 -42.540237 -8.211791 -4.100485 -3.067792 4.815330 -12.396613 3.344726 16.096406 -83.844269 -43.588058 -8.127410 4.510158 10.713583 13.060495 -38.713585 -9.484880 -5.824610 67.913466 -5.521330 5.969080 4.882467 10.182043 -0.197174 0.100521 -0.081144 -7.944336 -46.291746 0.297461 27.935711 65.403990 28.318336 -16.412445 28.601637 -3.764951 0.750480 -13.931990 -3.770105
-17.158021 57.189227 83.395577 -177.778486 -32.363487 -0.691981 3.080358 19.161806 4.073256 0.336773 2.342711 0.275280 0.484592 3.882427 0.511170 2.482969 16.679285 2.432738 -3.438624 12.783943 -0.019190 -6.520787 -11.977578 1.364741 0.991007 -2.109220 -1.065009 6.528217 -14.776618 -18.629010 143.388122 -75.273517 -112.694117 12.571603 -11.909014 -42.282975 -8.202496 -4.051456 -3.048684 4.876681 -12.294070 3.265106 10.839503 -84.094831 -38.101281 -8.311035 4.672668 10.566071 13.187190 -38.606548 -9.555962 -5.891066 67.908330 -5.618856 6.000848 4.818001 10.344000 -0.276295 0.132441 -0.111448 -7.903062 -46.207818 0.227262 27.838561 65.403695 28.228888 -16.413890 28.514569 -3.788438 0.755580 -13.868410 -3.735071
-17.177905 57.181298 83.401186 -177.725851 -32.415870 -0.715472 3.070044 19.196035 4.059138 0.383068 2.335160 0.252845 0.510028 3.883694 0.494978 2.497517 16.694987 2.438925 -3.553978 12.714461 -0.038363 -6.735091 -12.102236 1.379278 0.980710 -2.087502 -1.031736 6.557802 -14.806667 -18.558441 142.326007 -75.132006 -111.715004 12.650921 -11.409466 -42.040224 -8.191718 -4.001596 -3.022786 4.937456 -12.189089 3.171810 4.911159 -84.337568 -31.908940 -8.506328 4.799659 10.426858 13.289253 -38.540063 -9.578963 -5.999485 67.913202 -5.748030 5.977938 4.807456 10.435972 -0.299348 0.126299 -0.089325 -7.922064 -46.149661 0.207993 27.790719 65.405737 28.177311 -16.378847 28.446087 -3.793152 0.735715 -13.823530 -3.705428
-17.201345 57.174919 83.405134 -177.680316 -32.474279 -0.723401 3.107884 19.222381 4.026765 0.392751 2.340789 0.255344 0.517763 3.889964 0.492827 2.528430 16.705129 2.431018 -3.680234 12.634499 -0.063176 -6.968640 -12.246132 1.388497 0.961840 -2.068503 -0.998247 6.559853 -14.831367 -18.473679 141.268235 -74.974958 -110.729405 12.738003 -10.892131 -41.814300 -8.179455 -3.944289 -2.990590 4.999349 -12.087426 3.060654 -1.720000 -84.569879 -24.980957 -8.716858 4.901685 10.297621 13.397391 -38.464124 -9.611089 -6.085434 67.919386 -5.860789 5.931231 4.792750 10.543960 -0.302000 0.125379 -0.085887 -7.903235 -46.080706 0.161813 27.742121 65.400425 28.122476 -16.343352 28.375561 -3.777583 0.726371 -13.776835 -3.684299
-17.228236 57.171335 83.405492 -177.599670 -32.552322 -0.737844 3.117039 19.271932 3.988071 0.400900 2.343204 0.256851 0.526071 3.895749 0.490928 2.561720 16.713932 2.424745 -3.814598 12.544485 -0.094393 -7.215679 -12.408444 1.389644 0.941057 -2.045450 -0.967530 6.518909 -14.855911 -18.380111 140.272645 -74.814597 -109.793824 12.826713 -10.408769 -41.616897 -8.167235 -3.874678 -2.951460 5.074107 -11.992540 2.925270 -9.378685 -84.790848 -16.990365 -8.951604 4.984575 10.182751 13.453837 -38.273713 -9.676678 -6.028704 67.817094 -5.866697 6.073581 4.577516 10.806338 -0.512863 0.302388 -0.188473 -7.899923 -45.993034 0.088147 27.722068 65.388778 28.094283 -16.299594 28.302428 -3.764675 0.729914 -13.757821 -3.660575
-17.261637 57.165630 83.410052 -177.548809 -32.596986 -0.701742 3.145197 19.287462 3.916345 0.401753 2.346690 0.258592 0.534603 3.901109 0.489306 2.596112 16.721736 2.419895 -3.953840 12.444399 -0.132455 -7.469907 -12.589463 1.380691 0.923942 -2.013588 -0.941915 6.464281 -14.883038 -18.276895 139.279792 -74.647990 -108.883354 12.924365 -9.977551 -41.480589 -8.154525 -3.794572 -2.910396 5.168956 -11.904918 2.764729 -18.605386 -84.975296 -7.390687 -9.218021 5.059233 10.067429 13.581270 -38.197834 -9.762841 -6.099635 67.818607 -5.976968 5.992893 4.571868 10.879139 -0.477083 0.306139 -0.168955 -7.799434 -45.928591 -0.060344 27.680041 65.357552 28.077245 -16.270217 28.170414 -3.774731 0.712519 -13.650610 -3.615026
-17.287105 57.162367 83.411382 -177.510549 -32.657950 -0.710343 3.260598 19.291667 3.899240 0.347568 2.369627 0.284686 0.495322 3.916149 0.505439 2.670362 16.720080 2.392625 -4.095544 12.335682 -0.175835 -7.727362 -12.786611 1.363620 0.912912 -1.974660 -0.918491 6.402443 -14.909180 -18.169644 138.296831 -74.471679 -108.014850 13.031361 -9.585613 -41.435451 -8.139629 -3.707764 -2.873247 5.283346 -11.818403 2.583259 -29.795061 -85.057220 4.215962 -9.496649 5.129768 9.926147 13.671445 -38.115854 -9.775289 -6.167976 67.817222 -6.087069 5.946983 4.557612 10.983665 -0.487172 0.307357 -0.162659 -7.762948 -45.855914 -0.122838 27.686804 65.336296 28.095939 -16.269143 28.108916 -3.768165 0.707839 -13.608337 -3.598688
-17.314475 57.159235 83.413254 -177.469153 -32.711747 -0.710450 3.330211 19.305256 3.881075 0.330910 2.379401 0.290805 0.527256 3.915938 0.494525 2.681843 16.730322 2.397464 -4.237785 12.220343 -0.221876 -7.985400 -12.995998 1.342616 0.907158 -1.933987 -0.893645 6.309220 -14.941144 -18.090045 137.441894 -74.309448 -107.289082 13.133798 -9.228457 -41.482675 -8.121005 -3.617752 -2.839266 5.414042 -11.725497 2.382668 -42.590868 -84.949920 17.464745 -9.757820 5.177090 9.773709 13.761243 -38.039559 -9.799803 -6.225358 67.817112 -6.190266 5.898561 4.542712 11.083412 -0.497904 0.309326 -0.152977 -7.709712 -45.791128 -0.202351 27.657309 65.317812 28.075941 -16.246539 28.060150 -3.741779 0.689100 -13.557768 -3.585623
